<svg width="80" height="88" viewBox="0 0 80 88" fill="none" xmlns="http://www.w3.org/2000/svg">
<g clip-path="url(#clip0)">
<path d="M78.0586 88C79.1308 88 80 86.9836 80 85.7297C80 84.4759 79.1308 83.4594 78.0586 83.4594C76.9864 83.4594 76.1172 84.4759 76.1172 85.7297C76.1172 86.9836 76.9864 88 78.0586 88Z" fill="#FFBAA3"/>
<path d="M59.2743 88C60.3465 88 61.2157 86.9836 61.2157 85.7297C61.2157 84.4759 60.3465 83.4594 59.2743 83.4594C58.2021 83.4594 57.3329 84.4759 57.3329 85.7297C57.3329 86.9836 58.2021 88 59.2743 88Z" fill="#FFBAA3"/>
<path d="M40.49 88C41.5622 88 42.4314 86.9836 42.4314 85.7297C42.4314 84.4759 41.5622 83.4594 40.49 83.4594C39.4178 83.4594 38.5486 84.4759 38.5486 85.7297C38.5486 86.9836 39.4178 88 40.49 88Z" fill="#FFBAA3"/>
<path d="M19.7642 85.7266C19.7642 85.2777 19.878 84.8389 20.0912 84.4657C20.3045 84.0925 20.6076 83.8016 20.9622 83.6298C21.3168 83.458 21.7071 83.4131 22.0835 83.5007C22.46 83.5882 22.8058 83.8044 23.0772 84.1218C23.3486 84.4392 23.5335 84.8436 23.6084 85.2838C23.6832 85.724 23.6448 86.1804 23.4979 86.5951C23.351 87.0098 23.1023 87.3642 22.7831 87.6136C22.464 87.863 22.0887 87.9961 21.7049 87.9961C21.45 87.9963 21.1976 87.9377 20.962 87.8237C20.7265 87.7097 20.5125 87.5426 20.3322 87.3318C20.152 87.121 20.009 86.8707 19.9115 86.5953C19.8141 86.3199 19.764 86.0246 19.7642 85.7266V85.7266Z" fill="#FFBAA3"/>
<path d="M2.92066 88.0006C3.99288 88.0006 4.86208 86.9842 4.86208 85.7304C4.86208 84.4765 3.99288 83.4601 2.92066 83.4601C1.84845 83.4601 0.979248 84.4765 0.979248 85.7304C0.979248 86.9842 1.84845 88.0006 2.92066 88.0006Z" fill="#FFBAA3"/>
<path d="M78.0586 71.3084C79.1308 71.3084 80 70.292 80 69.0381C80 67.7843 79.1308 66.7679 78.0586 66.7679C76.9864 66.7679 76.1172 67.7843 76.1172 69.0381C76.1172 70.292 76.9864 71.3084 78.0586 71.3084Z" fill="#FFBAA3"/>
<path d="M59.2743 71.3084C60.3465 71.3084 61.2157 70.292 61.2157 69.0381C61.2157 67.7843 60.3465 66.7679 59.2743 66.7679C58.2021 66.7679 57.3329 67.7843 57.3329 69.0381C57.3329 70.292 58.2021 71.3084 59.2743 71.3084Z" fill="#FFBAA3"/>
<path d="M40.49 71.3084C41.5622 71.3084 42.4314 70.292 42.4314 69.0381C42.4314 67.7843 41.5622 66.7679 40.49 66.7679C39.4178 66.7679 38.5486 67.7843 38.5486 69.0381C38.5486 70.292 39.4178 71.3084 40.49 71.3084Z" fill="#FFBAA3"/>
<path d="M19.7642 69.0374C19.7646 68.5886 19.8787 68.15 20.0922 67.7771C20.3057 67.4042 20.609 67.1137 20.9636 66.9423C21.3183 66.7709 21.7084 66.7263 22.0848 66.8141C22.4611 66.902 22.8067 67.1183 23.0779 67.4358C23.3491 67.7533 23.5338 68.1577 23.6085 68.5978C23.6832 69.038 23.6447 69.4942 23.4977 69.9088C23.3508 70.3233 23.102 70.6776 22.7829 70.9269C22.4638 71.1762 22.0887 71.3092 21.7049 71.3092C21.4499 71.3092 21.1973 71.2504 20.9617 71.1362C20.7262 71.022 20.5121 70.8547 20.3319 70.6437C20.1516 70.4327 20.0087 70.1822 19.9113 69.9066C19.8139 69.631 19.7639 69.3356 19.7642 69.0374V69.0374Z" fill="#FFBAA3"/>
<path d="M2.92066 71.3084C3.99288 71.3084 4.86208 70.292 4.86208 69.0381C4.86208 67.7843 3.99288 66.7679 2.92066 66.7679C1.84845 66.7679 0.979248 67.7843 0.979248 69.0381C0.979248 70.292 1.84845 71.3084 2.92066 71.3084Z" fill="#FFBAA3"/>
<path d="M78.0586 54.6161C79.1308 54.6161 80 53.5996 80 52.3458C80 51.0919 79.1308 50.0755 78.0586 50.0755C76.9864 50.0755 76.1172 51.0919 76.1172 52.3458C76.1172 53.5996 76.9864 54.6161 78.0586 54.6161Z" fill="#FFBAA3"/>
<path d="M59.2743 54.6161C60.3465 54.6161 61.2157 53.5996 61.2157 52.3458C61.2157 51.0919 60.3465 50.0755 59.2743 50.0755C58.2021 50.0755 57.3329 51.0919 57.3329 52.3458C57.3329 53.5996 58.2021 54.6161 59.2743 54.6161Z" fill="#FFBAA3"/>
<path d="M40.49 54.6161C41.5622 54.6161 42.4314 53.5996 42.4314 52.3458C42.4314 51.0919 41.5622 50.0755 40.49 50.0755C39.4178 50.0755 38.5486 51.0919 38.5486 52.3458C38.5486 53.5996 39.4178 54.6161 40.49 54.6161Z" fill="#FFBAA3"/>
<path d="M19.7642 52.3458C19.7642 51.8969 19.878 51.4581 20.0912 51.0849C20.3045 50.7117 20.6076 50.4208 20.9622 50.249C21.3168 50.0773 21.7071 50.0323 22.0835 50.1199C22.46 50.2075 22.8058 50.4236 23.0772 50.741C23.3486 51.0584 23.5335 51.4628 23.6084 51.903C23.6832 52.3433 23.6448 52.7996 23.4979 53.2143C23.351 53.629 23.1023 53.9834 22.7831 54.2328C22.464 54.4822 22.0887 54.6153 21.7049 54.6153C21.45 54.6155 21.1976 54.5569 20.962 54.443C20.7265 54.329 20.5125 54.1618 20.3322 53.951C20.152 53.7402 20.009 53.49 19.9115 53.2145C19.8141 52.9391 19.764 52.6439 19.7642 52.3458V52.3458Z" fill="#FFBAA3"/>
<path d="M2.92066 54.6161C3.99288 54.6161 4.86208 53.5996 4.86208 52.3458C4.86208 51.0919 3.99288 50.0755 2.92066 50.0755C1.84845 50.0755 0.979248 51.0919 0.979248 52.3458C0.979248 53.5996 1.84845 54.6161 2.92066 54.6161Z" fill="#FFBAA3"/>
<path d="M78.0586 37.9245C79.1308 37.9245 80 36.9081 80 35.6542C80 34.4004 79.1308 33.3839 78.0586 33.3839C76.9864 33.3839 76.1172 34.4004 76.1172 35.6542C76.1172 36.9081 76.9864 37.9245 78.0586 37.9245Z" fill="#FFBAA3"/>
<path d="M59.2743 37.9245C60.3465 37.9245 61.2157 36.9081 61.2157 35.6542C61.2157 34.4004 60.3465 33.3839 59.2743 33.3839C58.2021 33.3839 57.3329 34.4004 57.3329 35.6542C57.3329 36.9081 58.2021 37.9245 59.2743 37.9245Z" fill="#FFBAA3"/>
<path d="M40.49 37.9245C41.5622 37.9245 42.4314 36.9081 42.4314 35.6542C42.4314 34.4004 41.5622 33.3839 40.49 33.3839C39.4178 33.3839 38.5486 34.4004 38.5486 35.6542C38.5486 36.9081 39.4178 37.9245 40.49 37.9245Z" fill="#FFBAA3"/>
<path d="M19.7642 35.655C19.7642 35.2061 19.878 34.7674 20.0912 34.3941C20.3045 34.0209 20.6076 33.73 20.9622 33.5583C21.3168 33.3865 21.7071 33.3416 22.0835 33.4291C22.46 33.5167 22.8058 33.7328 23.0772 34.0502C23.3486 34.3676 23.5335 34.772 23.6084 35.2123C23.6832 35.6525 23.6448 36.1088 23.4979 36.5235C23.351 36.9382 23.1023 37.2927 22.7831 37.542C22.464 37.7914 22.0887 37.9245 21.7049 37.9245C21.1902 37.9245 20.6966 37.6854 20.3326 37.2598C19.9686 36.8342 19.7642 36.2569 19.7642 35.655V35.655Z" fill="#FFBAA3"/>
<path d="M2.92066 37.9245C3.99288 37.9245 4.86208 36.9081 4.86208 35.6542C4.86208 34.4004 3.99288 33.3839 2.92066 33.3839C1.84845 33.3839 0.979248 34.4004 0.979248 35.6542C0.979248 36.9081 1.84845 37.9245 2.92066 37.9245Z" fill="#FFBAA3"/>
<path d="M78.0586 21.2321C79.1308 21.2321 80 20.2157 80 18.9619C80 17.708 79.1308 16.6916 78.0586 16.6916C76.9864 16.6916 76.1172 17.708 76.1172 18.9619C76.1172 20.2157 76.9864 21.2321 78.0586 21.2321Z" fill="#FFBAA3"/>
<path d="M59.2743 21.2321C60.3465 21.2321 61.2157 20.2157 61.2157 18.9619C61.2157 17.708 60.3465 16.6916 59.2743 16.6916C58.2021 16.6916 57.3329 17.708 57.3329 18.9619C57.3329 20.2157 58.2021 21.2321 59.2743 21.2321Z" fill="#FFBAA3"/>
<path d="M40.49 21.2321C41.5622 21.2321 42.4314 20.2157 42.4314 18.9619C42.4314 17.708 41.5622 16.6916 40.49 16.6916C39.4178 16.6916 38.5486 17.708 38.5486 18.9619C38.5486 20.2157 39.4178 21.2321 40.49 21.2321Z" fill="#FFBAA3"/>
<path d="M19.7642 18.9611C19.7646 18.5123 19.8787 18.0738 20.0922 17.7008C20.3057 17.3279 20.609 17.0374 20.9636 16.866C21.3183 16.6946 21.7084 16.65 22.0848 16.7378C22.4611 16.8257 22.8067 17.042 23.0779 17.3595C23.3491 17.677 23.5338 18.0814 23.6085 18.5215C23.6832 18.9617 23.6447 19.4179 23.4977 19.8325C23.3508 20.247 23.102 20.6013 22.7829 20.8506C22.4638 21.0999 22.0887 21.2329 21.7049 21.2329C21.4499 21.2329 21.1973 21.1741 20.9617 21.0599C20.7262 20.9457 20.5121 20.7784 20.3319 20.5674C20.1516 20.3564 20.0087 20.1059 19.9113 19.8303C19.8139 19.5547 19.7639 19.2593 19.7642 18.9611V18.9611Z" fill="#FFBAA3"/>
<path d="M2.92066 21.2321C3.99288 21.2321 4.86208 20.2157 4.86208 18.9619C4.86208 17.708 3.99288 16.6916 2.92066 16.6916C1.84845 16.6916 0.979248 17.708 0.979248 18.9619C0.979248 20.2157 1.84845 21.2321 2.92066 21.2321Z" fill="#FFBAA3"/>
<path d="M78.0586 4.54057C79.1308 4.54057 80 3.52413 80 2.27029C80 1.01644 79.1308 0 78.0586 0C76.9864 0 76.1172 1.01644 76.1172 2.27029C76.1172 3.52413 76.9864 4.54057 78.0586 4.54057Z" fill="#FFBAA3"/>
<path d="M59.2743 4.54057C60.3465 4.54057 61.2157 3.52413 61.2157 2.27029C61.2157 1.01644 60.3465 0 59.2743 0C58.2021 0 57.3329 1.01644 57.3329 2.27029C57.3329 3.52413 58.2021 4.54057 59.2743 4.54057Z" fill="#FFBAA3"/>
<path d="M40.49 4.54057C41.5622 4.54057 42.4314 3.52413 42.4314 2.27029C42.4314 1.01644 41.5622 0 40.49 0C39.4178 0 38.5486 1.01644 38.5486 2.27029C38.5486 3.52413 39.4178 4.54057 40.49 4.54057Z" fill="#FFBAA3"/>
<path d="M19.7642 2.27108C19.7642 1.82222 19.878 1.38343 20.0912 1.01021C20.3045 0.636995 20.6076 0.346109 20.9622 0.174336C21.3168 0.0025635 21.7071 -0.0423762 22.0835 0.0451929C22.46 0.132762 22.8058 0.348911 23.0772 0.666306C23.3486 0.983701 23.5335 1.38808 23.6084 1.82832C23.6832 2.26856 23.6448 2.72488 23.4979 3.13958C23.351 3.55427 23.1023 3.90872 22.7831 4.1581C22.464 4.40747 22.0887 4.54058 21.7049 4.54058C21.45 4.54078 21.1976 4.48222 20.962 4.36825C20.7265 4.25427 20.5125 4.08711 20.3322 3.87632C20.152 3.66554 20.009 3.41526 19.9115 3.13982C19.8141 2.86438 19.764 2.56917 19.7642 2.27108V2.27108Z" fill="#FFBAA3"/>
<path d="M2.92066 4.54057C3.99288 4.54057 4.86208 3.52413 4.86208 2.27029C4.86208 1.01644 3.99288 0 2.92066 0C1.84845 0 0.979248 1.01644 0.979248 2.27029C0.979248 3.52413 1.84845 4.54057 2.92066 4.54057Z" fill="#FFBAA3"/>
</g>
<defs>
<clipPath id="clip0">
<rect width="79.0207" height="88" fill="white" transform="translate(0.979248)"/>
</clipPath>
</defs>
</svg>
