<svg width="60" height="60" viewBox="0 0 60 60" fill="none" xmlns="http://www.w3.org/2000/svg">
<g clip-path="url(#clip0)">
<path d="M2.40787 2.40778C3.94988 0.866239 6.04098 0.000244141 8.22138 0.000244141C10.4018 0.000244141 12.4929 0.866239 14.0349 2.40778L57.5935 45.9664C59.135 47.5084 60.001 49.5995 60.001 51.7799C60.001 53.9603 59.135 56.0514 57.5935 57.5934V57.5934C56.8304 58.3567 55.9244 58.9623 54.9273 59.3754C53.9302 59.7885 52.8614 60.0012 51.7821 60.0012C50.7028 60.0012 49.634 59.7885 48.6369 59.3754C47.6397 58.9623 46.7337 58.3567 45.9707 57.5934L2.40787 14.0306C1.64454 13.2675 1.03899 12.3616 0.625863 11.3644C0.212735 10.3673 0.00012207 9.29854 0.00012207 8.2192C0.00012207 7.13987 0.212735 6.0711 0.625863 5.07396C1.03899 4.07683 1.64454 3.17085 2.40787 2.40778V2.40778Z" fill="#FC6027"/>
<path d="M57.5924 2.40787C58.3558 3.17095 58.9613 4.07692 59.3744 5.07406C59.7876 6.0712 60.0002 7.13996 60.0002 8.2193C60.0002 9.29863 59.7876 10.3674 59.3744 11.3645C58.9613 12.3617 58.3558 13.2676 57.5924 14.0307L14.0339 57.5935C12.4919 59.135 10.4007 60.001 8.22031 60.001C6.03991 60.001 3.94881 59.135 2.4068 57.5935V57.5935C0.865263 56.0515 -0.000732422 53.9604 -0.000732422 51.78C-0.000732422 49.5996 0.865263 47.5085 2.4068 45.9664L45.9696 2.40787C46.7327 1.64454 47.6387 1.03901 48.6358 0.625885C49.6329 0.212757 50.7017 0.00012207 51.781 0.00012207C52.8604 0.00012207 53.9291 0.212757 54.9263 0.625885C55.9234 1.03901 56.8294 1.64454 57.5924 2.40787V2.40787Z" fill="#FC6027"/>
</g>
<defs>
<clipPath id="clip0">
<rect width="60" height="60" fill="white"/>
</clipPath>
</defs>
</svg>
