<svg width="107" height="120" viewBox="0 0 107 120" fill="none" xmlns="http://www.w3.org/2000/svg">
<path d="M104.371 120C105.823 120 107 118.614 107 116.904C107 115.194 105.823 113.808 104.371 113.808C102.919 113.808 101.742 115.194 101.742 116.904C101.742 118.614 102.919 120 104.371 120Z" fill="#FFBAA3"/>
<path d="M78.9358 120C80.3877 120 81.5646 118.614 81.5646 116.904C81.5646 115.194 80.3877 113.808 78.9358 113.808C77.484 113.808 76.307 115.194 76.307 116.904C76.307 118.614 77.484 120 78.9358 120Z" fill="#FFBAA3"/>
<path d="M53.5004 120C54.9523 120 56.1292 118.614 56.1292 116.904C56.1292 115.194 54.9523 113.808 53.5004 113.808C52.0485 113.808 50.8716 115.194 50.8716 116.904C50.8716 118.614 52.0485 120 53.5004 120Z" fill="#FFBAA3"/>
<path d="M25.4363 116.9C25.4363 116.288 25.5904 115.689 25.8792 115.181C26.1679 114.672 26.5784 114.275 27.0585 114.041C27.5387 113.806 28.0671 113.745 28.5769 113.865C29.0866 113.984 29.5549 114.279 29.9224 114.712C30.2899 115.144 30.5402 115.696 30.6416 116.296C30.743 116.896 30.691 117.519 30.4921 118.084C30.2932 118.65 29.9563 119.133 29.5242 119.473C29.092 119.813 28.5839 119.995 28.0642 119.995C27.719 119.995 27.3772 119.915 27.0583 119.76C26.7393 119.604 26.4495 119.376 26.2055 119.089C25.9614 118.801 25.7678 118.46 25.6358 118.085C25.5039 117.709 25.436 117.306 25.4363 116.9V116.9Z" fill="#FFBAA3"/>
<path d="M2.62882 120C4.08068 120 5.25764 118.614 5.25764 116.904C5.25764 115.194 4.08068 113.808 2.62882 113.808C1.17696 113.808 0 115.194 0 116.904C0 118.614 1.17696 120 2.62882 120Z" fill="#FFBAA3"/>
<path d="M104.371 97.2388C105.823 97.2388 107 95.8527 107 94.1429C107 92.4331 105.823 91.0471 104.371 91.0471C102.919 91.0471 101.742 92.4331 101.742 94.1429C101.742 95.8527 102.919 97.2388 104.371 97.2388Z" fill="#FFBAA3"/>
<path d="M78.9358 97.2388C80.3877 97.2388 81.5646 95.8527 81.5646 94.1429C81.5646 92.4331 80.3877 91.0471 78.9358 91.0471C77.484 91.0471 76.307 92.4331 76.307 94.1429C76.307 95.8527 77.484 97.2388 78.9358 97.2388Z" fill="#FFBAA3"/>
<path d="M53.5004 97.2388C54.9523 97.2388 56.1292 95.8527 56.1292 94.1429C56.1292 92.4331 54.9523 91.0471 53.5004 91.0471C52.0485 91.0471 50.8716 92.4331 50.8716 94.1429C50.8716 95.8527 52.0485 97.2388 53.5004 97.2388Z" fill="#FFBAA3"/>
<path d="M25.4363 94.1419C25.4368 93.5299 25.5914 92.9319 25.8805 92.4234C26.1696 91.9149 26.5802 91.5187 27.0604 91.285C27.5407 91.0512 28.069 90.9904 28.5786 91.1102C29.0881 91.23 29.5561 91.525 29.9234 91.9579C30.2906 92.3908 30.5406 92.9423 30.6418 93.5425C30.743 94.1427 30.6908 94.7648 30.4918 95.3301C30.2928 95.8954 29.956 96.3786 29.5239 96.7185C29.0918 97.0584 28.5838 97.2399 28.0642 97.2399C27.7189 97.2399 27.3769 97.1597 27.0579 97.004C26.7389 96.8482 26.4491 96.62 26.205 96.3323C25.961 96.0446 25.7674 95.703 25.6355 95.3272C25.5036 94.9513 25.4359 94.5485 25.4363 94.1419V94.1419Z" fill="#FFBAA3"/>
<path d="M2.62882 97.2388C4.08068 97.2388 5.25764 95.8527 5.25764 94.1429C5.25764 92.4331 4.08068 91.0471 2.62882 91.0471C1.17696 91.0471 0 92.4331 0 94.1429C0 95.8527 1.17696 97.2388 2.62882 97.2388Z" fill="#FFBAA3"/>
<path d="M104.371 74.4765C105.823 74.4765 107 73.0904 107 71.3806C107 69.6708 105.823 68.2848 104.371 68.2848C102.919 68.2848 101.742 69.6708 101.742 71.3806C101.742 73.0904 102.919 74.4765 104.371 74.4765Z" fill="#FFBAA3"/>
<path d="M78.9358 74.4765C80.3877 74.4765 81.5646 73.0904 81.5646 71.3806C81.5646 69.6708 80.3877 68.2848 78.9358 68.2848C77.484 68.2848 76.307 69.6708 76.307 71.3806C76.307 73.0904 77.484 74.4765 78.9358 74.4765Z" fill="#FFBAA3"/>
<path d="M53.5004 74.4765C54.9523 74.4765 56.1292 73.0904 56.1292 71.3806C56.1292 69.6708 54.9523 68.2848 53.5004 68.2848C52.0485 68.2848 50.8716 69.6708 50.8716 71.3806C50.8716 73.0904 52.0485 74.4765 53.5004 74.4765Z" fill="#FFBAA3"/>
<path d="M25.4363 71.3806C25.4363 70.7685 25.5904 70.1702 25.8792 69.6613C26.1679 69.1523 26.5784 68.7557 27.0585 68.5214C27.5387 68.2872 28.0671 68.2259 28.5769 68.3453C29.0866 68.4647 29.5549 68.7595 29.9224 69.1923C30.2899 69.6251 30.5402 70.1765 30.6416 70.7769C30.743 71.3772 30.691 71.9995 30.4921 72.5649C30.2932 73.1304 29.9563 73.6138 29.5242 73.9538C29.092 74.2939 28.5839 74.4754 28.0642 74.4754C27.719 74.4757 27.3772 74.3958 27.0583 74.2404C26.7393 74.085 26.4495 73.857 26.2055 73.5696C25.9614 73.2822 25.7678 72.9409 25.6358 72.5653C25.5039 72.1897 25.436 71.7871 25.4363 71.3806V71.3806Z" fill="#FFBAA3"/>
<path d="M2.62882 74.4765C4.08068 74.4765 5.25764 73.0904 5.25764 71.3806C5.25764 69.6708 4.08068 68.2848 2.62882 68.2848C1.17696 68.2848 0 69.6708 0 71.3806C0 73.0904 1.17696 74.4765 2.62882 74.4765Z" fill="#FFBAA3"/>
<path d="M104.371 51.7152C105.823 51.7152 107 50.3292 107 48.6194C107 46.9096 105.823 45.5235 104.371 45.5235C102.919 45.5235 101.742 46.9096 101.742 48.6194C101.742 50.3292 102.919 51.7152 104.371 51.7152Z" fill="#FFBAA3"/>
<path d="M78.9358 51.7152C80.3877 51.7152 81.5646 50.3292 81.5646 48.6194C81.5646 46.9096 80.3877 45.5235 78.9358 45.5235C77.484 45.5235 76.307 46.9096 76.307 48.6194C76.307 50.3292 77.484 51.7152 78.9358 51.7152Z" fill="#FFBAA3"/>
<path d="M53.5004 51.7152C54.9523 51.7152 56.1292 50.3292 56.1292 48.6194C56.1292 46.9096 54.9523 45.5235 53.5004 45.5235C52.0485 45.5235 50.8716 46.9096 50.8716 48.6194C50.8716 50.3292 52.0485 51.7152 53.5004 51.7152Z" fill="#FFBAA3"/>
<path d="M25.4363 48.6205C25.4363 48.0084 25.5904 47.41 25.8792 46.9011C26.1679 46.3922 26.5784 45.9955 27.0585 45.7613C27.5387 45.527 28.0671 45.4658 28.5769 45.5852C29.0866 45.7046 29.5549 45.9993 29.9224 46.4321C30.2899 46.8649 30.5402 47.4164 30.6416 48.0167C30.743 48.617 30.691 49.2393 30.4921 49.8048C30.2932 50.3703 29.9563 50.8536 29.5242 51.1937C29.092 51.5337 28.5839 51.7152 28.0642 51.7152C27.3672 51.7152 26.6988 51.3892 26.206 50.8088C25.7132 50.2284 25.4363 49.4413 25.4363 48.6205V48.6205Z" fill="#FFBAA3"/>
<path d="M2.62882 51.7152C4.08068 51.7152 5.25764 50.3292 5.25764 48.6194C5.25764 46.9096 4.08068 45.5235 2.62882 45.5235C1.17696 45.5235 0 46.9096 0 48.6194C0 50.3292 1.17696 51.7152 2.62882 51.7152Z" fill="#FFBAA3"/>
<path d="M104.371 28.9529C105.823 28.9529 107 27.5669 107 25.8571C107 24.1473 105.823 22.7612 104.371 22.7612C102.919 22.7612 101.742 24.1473 101.742 25.8571C101.742 27.5669 102.919 28.9529 104.371 28.9529Z" fill="#FFBAA3"/>
<path d="M78.9358 28.9529C80.3877 28.9529 81.5646 27.5669 81.5646 25.8571C81.5646 24.1473 80.3877 22.7612 78.9358 22.7612C77.484 22.7612 76.307 24.1473 76.307 25.8571C76.307 27.5669 77.484 28.9529 78.9358 28.9529Z" fill="#FFBAA3"/>
<path d="M53.5004 28.9529C54.9523 28.9529 56.1292 27.5669 56.1292 25.8571C56.1292 24.1473 54.9523 22.7612 53.5004 22.7612C52.0485 22.7612 50.8716 24.1473 50.8716 25.8571C50.8716 27.5669 52.0485 28.9529 53.5004 28.9529Z" fill="#FFBAA3"/>
<path d="M25.4363 25.856C25.4368 25.244 25.5914 24.646 25.8805 24.1375C26.1696 23.629 26.5802 23.2328 27.0604 22.9991C27.5407 22.7653 28.069 22.7045 28.5786 22.8243C29.0881 22.9441 29.5561 23.2391 29.9234 23.672C30.2906 24.105 30.5406 24.6564 30.6418 25.2566C30.743 25.8569 30.6908 26.479 30.4918 27.0443C30.2928 27.6096 29.956 28.0927 29.5239 28.4326C29.0918 28.7726 28.5838 28.954 28.0642 28.954C27.7189 28.954 27.3769 28.8738 27.0579 28.7181C26.7389 28.5624 26.4491 28.3341 26.205 28.0464C25.961 27.7587 25.7674 27.4172 25.6355 27.0413C25.5036 26.6655 25.4359 26.2627 25.4363 25.856V25.856Z" fill="#FFBAA3"/>
<path d="M2.62882 28.9529C4.08068 28.9529 5.25764 27.5669 5.25764 25.8571C5.25764 24.1473 4.08068 22.7612 2.62882 22.7612C1.17696 22.7612 0 24.1473 0 25.8571C0 27.5669 1.17696 28.9529 2.62882 28.9529Z" fill="#FFBAA3"/>
<path d="M104.371 6.19169C105.823 6.19169 107 4.80563 107 3.09585C107 1.38606 105.823 0 104.371 0C102.919 0 101.742 1.38606 101.742 3.09585C101.742 4.80563 102.919 6.19169 104.371 6.19169Z" fill="#FFBAA3"/>
<path d="M78.9358 6.19169C80.3877 6.19169 81.5646 4.80563 81.5646 3.09585C81.5646 1.38606 80.3877 0 78.9358 0C77.484 0 76.307 1.38606 76.307 3.09585C76.307 4.80563 77.484 6.19169 78.9358 6.19169Z" fill="#FFBAA3"/>
<path d="M53.5004 6.19169C54.9523 6.19169 56.1292 4.80563 56.1292 3.09585C56.1292 1.38606 54.9523 0 53.5004 0C52.0485 0 50.8716 1.38606 50.8716 3.09585C50.8716 4.80563 52.0485 6.19169 53.5004 6.19169Z" fill="#FFBAA3"/>
<path d="M25.4363 3.09694C25.4363 2.48485 25.5904 1.8865 25.8792 1.37757C26.1679 0.868637 26.5784 0.471975 27.0585 0.23774C27.5387 0.00350365 28.0671 -0.0577777 28.5769 0.0616347C29.0866 0.181047 29.5549 0.475795 29.9224 0.908607C30.2899 1.34142 30.5402 1.89285 30.6416 2.49317C30.743 3.0935 30.691 3.71576 30.4921 4.28125C30.2932 4.84675 29.9563 5.33008 29.5242 5.67014C29.092 6.0102 28.5839 6.1917 28.0642 6.1917C27.719 6.19199 27.3772 6.11213 27.0583 5.95671C26.7393 5.80128 26.4495 5.57334 26.2055 5.2859C25.9614 4.99847 25.7678 4.65718 25.6358 4.28158C25.5039 3.90598 25.436 3.50343 25.4363 3.09694V3.09694Z" fill="#FFBAA3"/>
<path d="M2.62882 6.19169C4.08068 6.19169 5.25764 4.80563 5.25764 3.09585C5.25764 1.38606 4.08068 0 2.62882 0C1.17696 0 0 1.38606 0 3.09585C0 4.80563 1.17696 6.19169 2.62882 6.19169Z" fill="#FFBAA3"/>
</svg>
