<svg width="115" height="56" viewBox="0 0 115 56" fill="none" xmlns="http://www.w3.org/2000/svg">
<path d="M113 53.4486C101.705 53.4486 101.705 39.7885 90.4092 39.7885C79.113 39.7885 79.1077 53.4486 67.8083 53.4486C56.509 53.4486 56.5122 39.7885 45.2161 39.7885C33.9114 39.7885 33.9114 53.4486 22.6083 53.4486C11.3052 53.4486 11.3036 39.7885 0.000488281 39.7885" stroke="#FFBAA3" stroke-width="3.863" stroke-linecap="round" stroke-linejoin="round"/>
<path d="M113 34.5535C101.705 34.5535 101.705 20.8951 90.4092 20.8951C79.1131 20.8951 79.1077 34.5535 67.8084 34.5535C56.509 34.5535 56.5123 20.8951 45.2161 20.8951C33.9114 20.8951 33.9114 34.5535 22.6083 34.5535C11.3052 34.5535 11.3031 20.8951 0 20.8951" stroke="#FFBAA3" stroke-width="3.863" stroke-linecap="round" stroke-linejoin="round"/>
<path d="M113 15.66C101.706 15.66 101.706 2.00001 90.4097 2.00001C79.1135 2.00001 79.1082 15.66 67.8088 15.66C56.5095 15.66 56.5127 2.00001 45.2166 2.00001C33.9119 2.00001 33.9119 15.66 22.6088 15.66C11.3057 15.66 11.3041 2.00001 0.000976562 2.00001" stroke="#FFBAA3" stroke-width="3.863" stroke-linecap="round" stroke-linejoin="round"/>
</svg>
