<svg width="307" height="144" viewBox="0 0 307 144" fill="none" xmlns="http://www.w3.org/2000/svg">
<path d="M304.999 141.449C274.513 141.449 274.513 104.579 244.024 104.579C213.534 104.579 213.52 141.449 183.022 141.449C152.524 141.449 152.532 104.579 122.043 104.579C91.5303 104.579 91.5303 141.449 61.022 141.449C30.5138 141.449 30.5095 104.579 0.0012207 104.579" stroke="#FFBAA3" stroke-width="3.863" stroke-linecap="round" stroke-linejoin="round"/>
<path d="M304.999 90.4488C274.514 90.4488 274.514 53.5833 244.024 53.5833C213.535 53.5833 213.52 90.4488 183.022 90.4488C152.524 90.4488 152.533 53.5833 122.043 53.5833C91.5305 53.5833 91.5305 90.4488 61.0223 90.4488C30.514 90.4488 30.5082 53.5833 0 53.5833" stroke="#FFBAA3" stroke-width="3.863" stroke-linecap="round" stroke-linejoin="round"/>
<path d="M305 39.4533C274.515 39.4533 274.515 2.5835 244.025 2.5835C213.536 2.5835 213.521 39.4533 183.023 39.4533C152.525 39.4533 152.534 2.5835 122.044 2.5835C91.5318 2.5835 91.5318 39.4533 61.0235 39.4533C30.5153 39.4533 30.5109 2.5835 0.00268555 2.5835" stroke="#FFBAA3" stroke-width="3.863" stroke-linecap="round" stroke-linejoin="round"/>
</svg>
