<svg width="61" height="61" viewBox="0 0 61 61" fill="none" xmlns="http://www.w3.org/2000/svg">
<path d="M50.4013 21.1973C56.2548 21.1973 61 16.4521 61 10.5986C61 4.74517 56.2548 0 50.4013 0C44.5479 0 39.8027 4.74517 39.8027 10.5986C39.8027 16.4521 44.5479 21.1973 50.4013 21.1973Z" fill="#FC6027"/>
<path d="M10.5986 60.9982C16.4521 60.9982 21.1973 56.253 21.1973 50.3995C21.1973 44.5461 16.4521 39.8009 10.5986 39.8009C4.74517 39.8009 0 44.5461 0 50.3995C0 56.253 4.74517 60.9982 10.5986 60.9982Z" fill="#FC6027"/>
<path d="M49.1309 59.5601C54.9844 59.5601 59.7295 54.8149 59.7295 48.9614C59.7295 43.108 54.9844 38.3628 49.1309 38.3628C43.2775 38.3628 38.5323 43.108 38.5323 48.9614C38.5323 54.8149 43.2775 59.5601 49.1309 59.5601Z" fill="#FC6027"/>
<path d="M12.7575 23.1868C18.6109 23.1868 23.3561 18.4416 23.3561 12.5881C23.3561 6.73467 18.6109 1.9895 12.7575 1.9895C6.90401 1.9895 2.15884 6.73467 2.15884 12.5881C2.15884 18.4416 6.90401 23.1868 12.7575 23.1868Z" fill="#FC6027"/>
</svg>
