<svg width="51" height="88" viewBox="0 0 51 88" fill="none" xmlns="http://www.w3.org/2000/svg">
<g clip-path="url(#clip0)">
<path d="M46.0004 88C47.2487 88 48.2607 86.9836 48.2607 85.7297C48.2607 84.4759 47.2487 83.4594 46.0004 83.4594C44.7521 83.4594 43.7401 84.4759 43.7401 85.7297C43.7401 86.9836 44.7521 88 46.0004 88Z" fill="#FFBAA3"/>
<path d="M21.8705 85.7266C21.8705 85.2777 22.003 84.8389 22.2513 84.4657C22.4996 84.0925 22.8525 83.8016 23.2653 83.6298C23.6782 83.458 24.1325 83.4131 24.5708 83.5007C25.0091 83.5882 25.4117 83.8044 25.7277 84.1218C26.0437 84.4392 26.2589 84.8436 26.3461 85.2838C26.4333 85.724 26.3885 86.1804 26.2175 86.5951C26.0465 87.0098 25.7569 87.3642 25.3853 87.6136C25.0137 87.863 24.5769 87.9961 24.13 87.9961C23.8332 87.9963 23.5393 87.9377 23.2651 87.8237C22.9909 87.7097 22.7417 87.5426 22.5318 87.3318C22.322 87.121 22.1555 86.8707 22.0421 86.5953C21.9286 86.3199 21.8703 86.0246 21.8705 85.7266Z" fill="#FFBAA3"/>
<path d="M2.2603 88.0006C3.50862 88.0006 4.52059 86.9842 4.52059 85.7304C4.52059 84.4765 3.50862 83.4601 2.2603 83.4601C1.01197 83.4601 0 84.4765 0 85.7304C0 86.9842 1.01197 88.0006 2.2603 88.0006Z" fill="#FFBAA3"/>
<path d="M46.0004 71.3084C47.2487 71.3084 48.2607 70.292 48.2607 69.0381C48.2607 67.7843 47.2487 66.7679 46.0004 66.7679C44.7521 66.7679 43.7401 67.7843 43.7401 69.0381C43.7401 70.292 44.7521 71.3084 46.0004 71.3084Z" fill="#FFBAA3"/>
<path d="M21.8705 69.0374C21.8709 68.5886 22.0039 68.15 22.2524 67.7771C22.501 67.4042 22.854 67.1137 23.267 66.9423C23.6799 66.7709 24.1341 66.7263 24.5723 66.8141C25.0104 66.902 25.4128 67.1183 25.7285 67.4358C26.0443 67.7533 26.2593 68.1577 26.3463 68.5978C26.4333 69.038 26.3884 69.4942 26.2173 69.9088C26.0462 70.3233 25.7566 70.6776 25.3851 70.9269C25.0135 71.1762 24.5768 71.3092 24.13 71.3092C23.8331 71.3092 23.5391 71.2504 23.2648 71.1362C22.9905 71.022 22.7413 70.8547 22.5315 70.6437C22.3216 70.4327 22.1552 70.1822 22.0418 69.9066C21.9284 69.631 21.8702 69.3356 21.8705 69.0374Z" fill="#FFBAA3"/>
<path d="M2.2603 71.3084C3.50862 71.3084 4.52059 70.292 4.52059 69.0381C4.52059 67.7843 3.50862 66.7679 2.2603 66.7679C1.01197 66.7679 0 67.7843 0 69.0381C0 70.292 1.01197 71.3084 2.2603 71.3084Z" fill="#FFBAA3"/>
<path d="M46.0004 54.6161C47.2487 54.6161 48.2607 53.5996 48.2607 52.3458C48.2607 51.0919 47.2487 50.0755 46.0004 50.0755C44.7521 50.0755 43.7401 51.0919 43.7401 52.3458C43.7401 53.5996 44.7521 54.6161 46.0004 54.6161Z" fill="#FFBAA3"/>
<path d="M21.8705 52.3458C21.8705 51.8969 22.003 51.4581 22.2513 51.0849C22.4996 50.7117 22.8525 50.4208 23.2653 50.249C23.6782 50.0773 24.1325 50.0323 24.5708 50.1199C25.0091 50.2075 25.4117 50.4236 25.7277 50.741C26.0437 51.0584 26.2589 51.4628 26.3461 51.903C26.4333 52.3433 26.3885 52.7996 26.2175 53.2143C26.0465 53.629 25.7569 53.9834 25.3853 54.2328C25.0137 54.4822 24.5769 54.6153 24.13 54.6153C23.8332 54.6155 23.5393 54.5569 23.2651 54.443C22.9909 54.329 22.7417 54.1618 22.5318 53.951C22.322 53.7402 22.1555 53.49 22.0421 53.2145C21.9286 52.9391 21.8703 52.6439 21.8705 52.3458Z" fill="#FFBAA3"/>
<path d="M2.2603 54.6161C3.50862 54.6161 4.52059 53.5996 4.52059 52.3458C4.52059 51.0919 3.50862 50.0755 2.2603 50.0755C1.01197 50.0755 0 51.0919 0 52.3458C0 53.5996 1.01197 54.6161 2.2603 54.6161Z" fill="#FFBAA3"/>
<path d="M46.0004 37.9245C47.2487 37.9245 48.2607 36.9081 48.2607 35.6542C48.2607 34.4004 47.2487 33.3839 46.0004 33.3839C44.7521 33.3839 43.7401 34.4004 43.7401 35.6542C43.7401 36.9081 44.7521 37.9245 46.0004 37.9245Z" fill="#FFBAA3"/>
<path d="M21.8705 35.655C21.8705 35.2061 22.003 34.7674 22.2513 34.3941C22.4996 34.0209 22.8525 33.73 23.2653 33.5583C23.6782 33.3865 24.1325 33.3416 24.5708 33.4291C25.0091 33.5167 25.4117 33.7328 25.7277 34.0502C26.0437 34.3676 26.2589 34.772 26.3461 35.2123C26.4333 35.6525 26.3885 36.1088 26.2175 36.5235C26.0465 36.9382 25.7569 37.2927 25.3853 37.542C25.0137 37.7914 24.5769 37.9245 24.13 37.9245C23.5307 37.9245 22.956 37.6854 22.5323 37.2598C22.1086 36.8342 21.8705 36.2569 21.8705 35.655Z" fill="#FFBAA3"/>
<path d="M2.2603 37.9245C3.50862 37.9245 4.52059 36.9081 4.52059 35.6542C4.52059 34.4004 3.50862 33.3839 2.2603 33.3839C1.01197 33.3839 0 34.4004 0 35.6542C0 36.9081 1.01197 37.9245 2.2603 37.9245Z" fill="#FFBAA3"/>
<path d="M46.0004 21.2321C47.2487 21.2321 48.2607 20.2157 48.2607 18.9619C48.2607 17.708 47.2487 16.6916 46.0004 16.6916C44.7521 16.6916 43.7401 17.708 43.7401 18.9619C43.7401 20.2157 44.7521 21.2321 46.0004 21.2321Z" fill="#FFBAA3"/>
<path d="M21.8705 18.9611C21.8709 18.5123 22.0039 18.0738 22.2524 17.7008C22.501 17.3279 22.854 17.0374 23.267 16.866C23.6799 16.6946 24.1341 16.65 24.5723 16.7378C25.0104 16.8257 25.4128 17.042 25.7285 17.3595C26.0443 17.677 26.2593 18.0814 26.3463 18.5215C26.4333 18.9617 26.3884 19.4179 26.2173 19.8325C26.0462 20.247 25.7566 20.6013 25.3851 20.8506C25.0135 21.0999 24.5768 21.2329 24.13 21.2329C23.8331 21.2329 23.5391 21.1741 23.2648 21.0599C22.9905 20.9457 22.7413 20.7784 22.5315 20.5674C22.3216 20.3564 22.1552 20.1059 22.0418 19.8303C21.9284 19.5547 21.8702 19.2593 21.8705 18.9611Z" fill="#FFBAA3"/>
<path d="M2.2603 21.2321C3.50862 21.2321 4.52059 20.2157 4.52059 18.9619C4.52059 17.708 3.50862 16.6916 2.2603 16.6916C1.01197 16.6916 0 17.708 0 18.9619C0 20.2157 1.01197 21.2321 2.2603 21.2321Z" fill="#FFBAA3"/>
<path d="M46.0004 4.54057C47.2487 4.54057 48.2607 3.52413 48.2607 2.27029C48.2607 1.01644 47.2487 0 46.0004 0C44.7521 0 43.7401 1.01644 43.7401 2.27029C43.7401 3.52413 44.7521 4.54057 46.0004 4.54057Z" fill="#FFBAA3"/>
<path d="M21.8705 2.27108C21.8705 1.82222 22.003 1.38343 22.2513 1.01021C22.4996 0.636995 22.8525 0.346109 23.2653 0.174336C23.6782 0.0025635 24.1325 -0.0423762 24.5708 0.0451929C25.0091 0.132762 25.4117 0.348911 25.7277 0.666306C26.0437 0.983701 26.2589 1.38808 26.3461 1.82832C26.4333 2.26856 26.3885 2.72488 26.2175 3.13958C26.0465 3.55427 25.7569 3.90872 25.3853 4.1581C25.0137 4.40747 24.5769 4.54058 24.13 4.54058C23.8332 4.54078 23.5393 4.48222 23.2651 4.36825C22.9909 4.25427 22.7417 4.08711 22.5318 3.87632C22.322 3.66554 22.1555 3.41526 22.0421 3.13982C21.9286 2.86438 21.8703 2.56917 21.8705 2.27108Z" fill="#FFBAA3"/>
<path d="M2.2603 4.54057C3.50862 4.54057 4.52059 3.52413 4.52059 2.27029C4.52059 1.01644 3.50862 0 2.2603 0C1.01197 0 0 1.01644 0 2.27029C0 3.52413 1.01197 4.54057 2.2603 4.54057Z" fill="#FFBAA3"/>
</g>
<defs>
<clipPath id="clip0">
<rect width="92" height="88" fill="white"/>
</clipPath>
</defs>
</svg>
