<svg width="98" height="120" viewBox="0 0 98 120" fill="none" xmlns="http://www.w3.org/2000/svg">
<path d="M94.929 120C96.6251 120 98 118.614 98 116.904C98 115.194 96.6251 113.808 94.929 113.808C93.2329 113.808 91.8579 115.194 91.8579 116.904C91.8579 118.614 93.2329 120 94.929 120Z" fill="#FFBAA3"/>
<path d="M65.2147 120C66.9108 120 68.2858 118.614 68.2858 116.904C68.2858 115.194 66.9108 113.808 65.2147 113.808C63.5186 113.808 62.1437 115.194 62.1437 116.904C62.1437 118.614 63.5186 120 65.2147 120Z" fill="#FFBAA3"/>
<path d="M35.5005 120C37.1966 120 38.5716 118.614 38.5716 116.904C38.5716 115.194 37.1966 113.808 35.5005 113.808C33.8044 113.808 32.4294 115.194 32.4294 116.904C32.4294 118.614 33.8044 120 35.5005 120Z" fill="#FFBAA3"/>
<path d="M2.71521 116.9C2.71521 116.288 2.89526 115.689 3.2326 115.181C3.56993 114.672 4.04941 114.275 4.61038 114.041C5.17135 113.806 5.7886 113.745 6.38412 113.865C6.97964 113.984 7.52667 114.279 7.95601 114.712C8.38536 115.144 8.67776 115.696 8.79622 116.296C8.91467 116.896 8.85385 117.519 8.62149 118.084C8.38913 118.65 7.99564 119.133 7.49079 119.473C6.98593 119.813 6.39239 119.995 5.78521 119.995C5.38197 119.995 4.98265 119.915 4.61005 119.76C4.23746 119.604 3.89892 119.376 3.61379 119.089C3.32866 118.801 3.10252 118.46 2.94834 118.085C2.79416 117.709 2.71493 117.306 2.71521 116.9Z" fill="#FFBAA3"/>
<path d="M94.929 97.2388C96.6251 97.2388 98 95.8527 98 94.1429C98 92.4331 96.6251 91.0471 94.929 91.0471C93.2329 91.0471 91.8579 92.4331 91.8579 94.1429C91.8579 95.8527 93.2329 97.2388 94.929 97.2388Z" fill="#FFBAA3"/>
<path d="M65.2147 97.2388C66.9108 97.2388 68.2858 95.8527 68.2858 94.1429C68.2858 92.4331 66.9108 91.0471 65.2147 91.0471C63.5186 91.0471 62.1437 92.4331 62.1437 94.1429C62.1437 95.8527 63.5186 97.2388 65.2147 97.2388Z" fill="#FFBAA3"/>
<path d="M35.5005 97.2388C37.1966 97.2388 38.5716 95.8527 38.5716 94.1429C38.5716 92.4331 37.1966 91.0471 35.5005 91.0471C33.8044 91.0471 32.4294 92.4331 32.4294 94.1429C32.4294 95.8527 33.8044 97.2388 35.5005 97.2388Z" fill="#FFBAA3"/>
<path d="M2.71521 94.1419C2.71584 93.5299 2.89644 92.9319 3.23416 92.4234C3.57188 91.9149 4.05157 91.5187 4.61259 91.285C5.17361 91.0512 5.7908 90.9904 6.3861 91.1102C6.98141 91.23 7.52812 91.525 7.95715 91.9579C8.38618 92.3908 8.67825 92.9423 8.79644 93.5425C8.91464 94.1427 8.85365 94.7648 8.6212 95.3301C8.38874 95.8954 7.99525 96.3786 7.49046 96.7185C6.98568 97.0584 6.39226 97.2399 5.78521 97.2399C5.38178 97.2399 4.98231 97.1597 4.60963 97.004C4.23696 96.8482 3.89838 96.62 3.61327 96.3323C3.32815 96.0446 3.10208 95.703 2.94799 95.3272C2.79389 94.9513 2.71479 94.5485 2.71521 94.1419Z" fill="#FFBAA3"/>
<path d="M94.929 74.4765C96.6251 74.4765 98 73.0904 98 71.3806C98 69.6708 96.6251 68.2848 94.929 68.2848C93.2329 68.2848 91.8579 69.6708 91.8579 71.3806C91.8579 73.0904 93.2329 74.4765 94.929 74.4765Z" fill="#FFBAA3"/>
<path d="M65.2147 74.4765C66.9108 74.4765 68.2858 73.0904 68.2858 71.3806C68.2858 69.6708 66.9108 68.2848 65.2147 68.2848C63.5186 68.2848 62.1437 69.6708 62.1437 71.3806C62.1437 73.0904 63.5186 74.4765 65.2147 74.4765Z" fill="#FFBAA3"/>
<path d="M35.5005 74.4765C37.1966 74.4765 38.5716 73.0904 38.5716 71.3806C38.5716 69.6708 37.1966 68.2848 35.5005 68.2848C33.8044 68.2848 32.4294 69.6708 32.4294 71.3806C32.4294 73.0904 33.8044 74.4765 35.5005 74.4765Z" fill="#FFBAA3"/>
<path d="M2.71521 71.3806C2.71521 70.7685 2.89526 70.1702 3.2326 69.6613C3.56993 69.1523 4.04941 68.7557 4.61038 68.5214C5.17135 68.2872 5.7886 68.2259 6.38412 68.3453C6.97964 68.4647 7.52667 68.7595 7.95601 69.1923C8.38536 69.6251 8.67776 70.1765 8.79622 70.7769C8.91467 71.3772 8.85385 71.9995 8.62149 72.5649C8.38913 73.1304 7.99564 73.6138 7.49079 73.9538C6.98593 74.2939 6.39239 74.4754 5.78521 74.4754C5.38197 74.4757 4.98265 74.3958 4.61005 74.2404C4.23746 74.085 3.89892 73.857 3.61379 73.5696C3.32866 73.2822 3.10252 72.9409 2.94834 72.5653C2.79416 72.1897 2.71493 71.7871 2.71521 71.3806Z" fill="#FFBAA3"/>
<path d="M94.929 51.7152C96.6251 51.7152 98 50.3292 98 48.6194C98 46.9096 96.6251 45.5235 94.929 45.5235C93.2329 45.5235 91.8579 46.9096 91.8579 48.6194C91.8579 50.3292 93.2329 51.7152 94.929 51.7152Z" fill="#FFBAA3"/>
<path d="M65.2147 51.7152C66.9108 51.7152 68.2858 50.3292 68.2858 48.6194C68.2858 46.9096 66.9108 45.5235 65.2147 45.5235C63.5186 45.5235 62.1437 46.9096 62.1437 48.6194C62.1437 50.3292 63.5186 51.7152 65.2147 51.7152Z" fill="#FFBAA3"/>
<path d="M35.5005 51.7152C37.1966 51.7152 38.5716 50.3292 38.5716 48.6194C38.5716 46.9096 37.1966 45.5235 35.5005 45.5235C33.8044 45.5235 32.4294 46.9096 32.4294 48.6194C32.4294 50.3292 33.8044 51.7152 35.5005 51.7152Z" fill="#FFBAA3"/>
<path d="M2.71521 48.6205C2.71521 48.0084 2.89526 47.41 3.23259 46.9011C3.56993 46.3922 4.04941 45.9955 4.61038 45.7613C5.17134 45.527 5.7886 45.4658 6.38412 45.5852C6.97964 45.7046 7.52667 45.9993 7.95601 46.4321C8.38536 46.8649 8.67776 47.4164 8.79622 48.0167C8.91467 48.617 8.85385 49.2393 8.62149 49.8048C8.38913 50.3703 7.99565 50.8536 7.49079 51.1937C6.98593 51.5337 6.39239 51.7152 5.78521 51.7152C4.971 51.7152 4.19014 51.3892 3.61441 50.8088C3.03867 50.2284 2.71521 49.4413 2.71521 48.6205Z" fill="#FFBAA3"/>
<path d="M94.929 28.9529C96.6251 28.9529 98 27.5669 98 25.8571C98 24.1473 96.6251 22.7612 94.929 22.7612C93.2329 22.7612 91.8579 24.1473 91.8579 25.8571C91.8579 27.5669 93.2329 28.9529 94.929 28.9529Z" fill="#FFBAA3"/>
<path d="M65.2147 28.9529C66.9108 28.9529 68.2858 27.5669 68.2858 25.8571C68.2858 24.1473 66.9108 22.7612 65.2147 22.7612C63.5186 22.7612 62.1437 24.1473 62.1437 25.8571C62.1437 27.5669 63.5186 28.9529 65.2147 28.9529Z" fill="#FFBAA3"/>
<path d="M35.5005 28.9529C37.1966 28.9529 38.5716 27.5669 38.5716 25.8571C38.5716 24.1473 37.1966 22.7612 35.5005 22.7612C33.8044 22.7612 32.4294 24.1473 32.4294 25.8571C32.4294 27.5669 33.8044 28.9529 35.5005 28.9529Z" fill="#FFBAA3"/>
<path d="M2.71521 25.856C2.71584 25.244 2.89644 24.646 3.23416 24.1375C3.57188 23.629 4.05157 23.2328 4.61259 22.9991C5.17361 22.7653 5.7908 22.7045 6.3861 22.8243C6.98141 22.9441 7.52812 23.2391 7.95715 23.672C8.38618 24.105 8.67825 24.6564 8.79644 25.2566C8.91464 25.8569 8.85365 26.479 8.6212 27.0443C8.38874 27.6096 7.99525 28.0927 7.49046 28.4326C6.98568 28.7726 6.39226 28.954 5.78521 28.954C5.38178 28.954 4.98231 28.8738 4.60963 28.7181C4.23696 28.5624 3.89838 28.3341 3.61327 28.0464C3.32815 27.7587 3.10208 27.4172 2.94799 27.0413C2.79389 26.6655 2.71479 26.2627 2.71521 25.856Z" fill="#FFBAA3"/>
<path d="M94.929 6.19169C96.6251 6.19169 98 4.80563 98 3.09585C98 1.38606 96.6251 0 94.929 0C93.2329 0 91.8579 1.38606 91.8579 3.09585C91.8579 4.80563 93.2329 6.19169 94.929 6.19169Z" fill="#FFBAA3"/>
<path d="M65.2147 6.19169C66.9108 6.19169 68.2858 4.80563 68.2858 3.09585C68.2858 1.38606 66.9108 0 65.2147 0C63.5186 0 62.1437 1.38606 62.1437 3.09585C62.1437 4.80563 63.5186 6.19169 65.2147 6.19169Z" fill="#FFBAA3"/>
<path d="M35.5005 6.19169C37.1966 6.19169 38.5716 4.80563 38.5716 3.09585C38.5716 1.38606 37.1966 0 35.5005 0C33.8044 0 32.4294 1.38606 32.4294 3.09585C32.4294 4.80563 33.8044 6.19169 35.5005 6.19169Z" fill="#FFBAA3"/>
<path d="M2.71521 3.09694C2.71521 2.48485 2.89526 1.8865 3.2326 1.37757C3.56993 0.868637 4.04941 0.471975 4.61038 0.23774C5.17135 0.00350365 5.7886 -0.0577777 6.38412 0.0616347C6.97964 0.181047 7.52667 0.475795 7.95601 0.908607C8.38536 1.34142 8.67776 1.89285 8.79622 2.49317C8.91467 3.0935 8.85385 3.71576 8.62149 4.28125C8.38913 4.84675 7.99564 5.33008 7.49079 5.67014C6.98593 6.0102 6.39239 6.1917 5.78521 6.1917C5.38197 6.19199 4.98265 6.11213 4.61005 5.95671C4.23746 5.80128 3.89892 5.57334 3.61379 5.2859C3.32866 4.99847 3.10252 4.65718 2.94834 4.28158C2.79416 3.90598 2.71493 3.50343 2.71521 3.09694Z" fill="#FFBAA3"/>
</svg>
