<svg width="61" height="61" viewBox="0 0 61 61" fill="none" xmlns="http://www.w3.org/2000/svg">
<path d="M50.4014 21.1973C56.2548 21.1973 61 16.4521 61 10.5986C61 4.74517 56.2548 0 50.4014 0C44.5479 0 39.8027 4.74517 39.8027 10.5986C39.8027 16.4521 44.5479 21.1973 50.4014 21.1973Z" fill="#FFBAA3"/>
<path d="M10.5986 60.998C16.4521 60.998 21.1973 56.2529 21.1973 50.3994C21.1973 44.5459 16.4521 39.8008 10.5986 39.8008C4.74517 39.8008 0 44.5459 0 50.3994C0 56.2529 4.74517 60.998 10.5986 60.998Z" fill="#FFBAA3"/>
<path d="M49.131 59.5601C54.9844 59.5601 59.7296 54.8149 59.7296 48.9614C59.7296 43.108 54.9844 38.3628 49.131 38.3628C43.2775 38.3628 38.5323 43.108 38.5323 48.9614C38.5323 54.8149 43.2775 59.5601 49.131 59.5601Z" fill="#FFBAA3"/>
<path d="M12.7574 23.1868C18.6109 23.1868 23.3561 18.4416 23.3561 12.5881C23.3561 6.73467 18.6109 1.9895 12.7574 1.9895C6.90398 1.9895 2.15881 6.73467 2.15881 12.5881C2.15881 18.4416 6.90398 23.1868 12.7574 23.1868Z" fill="#FFBAA3"/>
</svg>
