<svg width="117" height="56" viewBox="0 0 117 56" fill="none" xmlns="http://www.w3.org/2000/svg">
<path d="M115 53.4485C103.705 53.4485 103.705 39.7885 92.4092 39.7885C81.1131 39.7885 81.1077 53.4485 69.8084 53.4485C58.509 53.4485 58.5123 39.7885 47.2161 39.7885C35.9114 39.7885 35.9114 53.4485 24.6083 53.4485C13.3052 53.4485 13.3036 39.7885 2.00053 39.7885" stroke="#FF4500" stroke-width="3.863" stroke-linecap="round" stroke-linejoin="round"/>
<path d="M115 34.5535C103.705 34.5535 103.705 20.8951 92.4092 20.8951C81.1131 20.8951 81.1077 34.5535 69.8084 34.5535C58.509 34.5535 58.5123 20.8951 47.2161 20.8951C35.9114 20.8951 35.9114 34.5535 24.6083 34.5535C13.3052 34.5535 13.3031 20.8951 2 20.8951" stroke="#FF4500" stroke-width="3.863" stroke-linecap="round" stroke-linejoin="round"/>
<path d="M115 15.66C103.706 15.66 103.706 2 92.4097 2C81.1135 2 81.1082 15.66 69.8088 15.66C58.5095 15.66 58.5127 2 47.2166 2C35.9119 2 35.9119 15.66 24.6088 15.66C13.3057 15.66 13.3041 2 2.001 2" stroke="#FF4500" stroke-width="3.863" stroke-linecap="round" stroke-linejoin="round"/>
</svg>
