<svg width="142" height="137" viewBox="0 0 142 137" fill="none" xmlns="http://www.w3.org/2000/svg">
<path d="M138.511 137C140.438 137 142 135.418 142 133.466C142 131.514 140.438 129.931 138.511 129.931C136.585 129.931 135.023 131.514 135.023 133.466C135.023 135.418 136.585 137 138.511 137Z" fill="#FF4500"/>
<path d="M104.756 137C106.683 137 108.245 135.418 108.245 133.466C108.245 131.514 106.683 129.931 104.756 129.931C102.829 129.931 101.267 131.514 101.267 133.466C101.267 135.418 102.829 137 104.756 137Z" fill="#FF4500"/>
<path d="M71.0006 137C72.9274 137 74.4893 135.418 74.4893 133.466C74.4893 131.514 72.9274 129.931 71.0006 129.931C69.0738 129.931 67.5119 131.514 67.5119 133.466C67.5119 135.418 69.0738 137 71.0006 137Z" fill="#FF4500"/>
<path d="M33.7565 133.461C33.7565 132.762 33.9611 132.079 34.3443 131.498C34.7275 130.917 35.2722 130.464 35.9094 130.196C36.5467 129.929 37.2479 129.859 37.9244 129.995C38.6009 130.132 39.2223 130.468 39.7101 130.962C40.1978 131.456 40.53 132.086 40.6646 132.771C40.7991 133.457 40.73 134.167 40.4661 134.813C40.2021 135.458 39.7551 136.01 39.1816 136.398C38.6081 136.787 37.9338 136.994 37.244 136.994C36.786 136.994 36.3323 136.903 35.9091 136.726C35.4858 136.548 35.1012 136.288 34.7773 135.96C34.4534 135.632 34.1965 135.242 34.0214 134.813C33.8462 134.384 33.7562 133.925 33.7565 133.461Z" fill="#FF4500"/>
<path d="M3.48872 136.999C5.41548 136.999 6.97744 135.417 6.97744 133.465C6.97744 131.513 5.41548 129.93 3.48872 129.93C1.56195 129.93 0 131.513 0 133.465C0 135.417 1.56195 136.999 3.48872 136.999Z" fill="#FF4500"/>
<path d="M138.511 111.014C140.438 111.014 142 109.432 142 107.48C142 105.528 140.438 103.945 138.511 103.945C136.585 103.945 135.023 105.528 135.023 107.48C135.023 109.432 136.585 111.014 138.511 111.014Z" fill="#FF4500"/>
<path d="M104.756 111.014C106.683 111.014 108.245 109.432 108.245 107.48C108.245 105.528 106.683 103.945 104.756 103.945C102.829 103.945 101.267 105.528 101.267 107.48C101.267 109.432 102.829 111.014 104.756 111.014Z" fill="#FF4500"/>
<path d="M71.0006 111.014C72.9274 111.014 74.4893 109.432 74.4893 107.48C74.4893 105.528 72.9274 103.945 71.0006 103.945C69.0738 103.945 67.5119 105.528 67.5119 107.48C67.5119 109.432 69.0738 111.014 71.0006 111.014Z" fill="#FF4500"/>
<path d="M33.7565 107.479C33.7573 106.78 33.9624 106.097 34.3461 105.517C34.7297 104.936 35.2746 104.484 35.912 104.217C36.5493 103.95 37.2504 103.881 37.9267 104.017C38.6029 104.154 39.224 104.491 39.7114 104.985C40.1987 105.48 40.5305 106.109 40.6648 106.794C40.7991 107.48 40.7298 108.19 40.4657 108.835C40.2017 109.481 39.7547 110.032 39.1812 110.42C38.6078 110.808 37.9337 111.015 37.2441 111.015C36.7858 111.015 36.332 110.924 35.9086 110.746C35.4852 110.568 35.1006 110.308 34.7767 109.979C34.4528 109.651 34.196 109.261 34.021 108.832C33.8459 108.403 33.7561 107.943 33.7565 107.479Z" fill="#FF4500"/>
<path d="M3.48872 111.014C5.41548 111.014 6.97744 109.432 6.97744 107.48C6.97744 105.528 5.41548 103.945 3.48872 103.945C1.56195 103.945 0 105.528 0 107.48C0 109.432 1.56195 111.014 3.48872 111.014Z" fill="#FF4500"/>
<path d="M138.511 85.0273C140.438 85.0273 142 83.4449 142 81.4929C142 79.5408 140.438 77.9584 138.511 77.9584C136.585 77.9584 135.023 79.5408 135.023 81.4929C135.023 83.4449 136.585 85.0273 138.511 85.0273Z" fill="#FF4500"/>
<path d="M104.756 85.0273C106.683 85.0273 108.245 83.4449 108.245 81.4929C108.245 79.5408 106.683 77.9584 104.756 77.9584C102.829 77.9584 101.267 79.5408 101.267 81.4929C101.267 83.4449 102.829 85.0273 104.756 85.0273Z" fill="#FF4500"/>
<path d="M71.0006 85.0273C72.9274 85.0273 74.4893 83.4449 74.4893 81.4929C74.4893 79.5408 72.9274 77.9584 71.0006 77.9584C69.0738 77.9584 67.5119 79.5408 67.5119 81.4929C67.5119 83.4449 69.0738 85.0273 71.0006 85.0273Z" fill="#FF4500"/>
<path d="M33.7565 81.4929C33.7565 80.7941 33.9611 80.1109 34.3443 79.5299C34.7275 78.9489 35.2722 78.496 35.9094 78.2286C36.5467 77.9612 37.2479 77.8912 37.9244 78.0275C38.6009 78.1639 39.2223 78.5004 39.7101 78.9945C40.1978 79.4886 40.53 80.1182 40.6646 80.8036C40.7991 81.4889 40.73 82.1993 40.4661 82.845C40.2021 83.4906 39.7551 84.0424 39.1816 84.4306C38.6081 84.8188 37.9338 85.0261 37.244 85.0261C36.786 85.0264 36.3323 84.9352 35.9091 84.7578C35.4858 84.5803 35.1012 84.3201 34.7773 83.9919C34.4534 83.6638 34.1965 83.2742 34.0214 82.8453C33.8462 82.4165 33.7562 81.9569 33.7565 81.4929Z" fill="#FF4500"/>
<path d="M3.48872 85.0273C5.41548 85.0273 6.97744 83.4449 6.97744 81.4929C6.97744 79.5408 5.41548 77.9584 3.48872 77.9584C1.56195 77.9584 0 79.5408 0 81.4929C0 83.4449 1.56195 85.0273 3.48872 85.0273Z" fill="#FF4500"/>
<path d="M138.511 59.0416C140.438 59.0416 142 57.4591 142 55.5071C142 53.5551 140.438 51.9727 138.511 51.9727C136.585 51.9727 135.023 53.5551 135.023 55.5071C135.023 57.4591 136.585 59.0416 138.511 59.0416Z" fill="#FF4500"/>
<path d="M104.756 59.0416C106.683 59.0416 108.245 57.4591 108.245 55.5071C108.245 53.5551 106.683 51.9727 104.756 51.9727C102.829 51.9727 101.267 53.5551 101.267 55.5071C101.267 57.4591 102.829 59.0416 104.756 59.0416Z" fill="#FF4500"/>
<path d="M71.0006 59.0416C72.9274 59.0416 74.4893 57.4591 74.4893 55.5071C74.4893 53.5551 72.9274 51.9727 71.0006 51.9727C69.0738 51.9727 67.5119 53.5551 67.5119 55.5071C67.5119 57.4591 69.0738 59.0416 71.0006 59.0416Z" fill="#FF4500"/>
<path d="M33.7565 55.5084C33.7565 54.8096 33.9611 54.1264 34.3443 53.5454C34.7275 52.9644 35.2722 52.5115 35.9094 52.2441C36.5467 51.9767 37.2479 51.9067 37.9244 52.0431C38.6009 52.1794 39.2223 52.5159 39.7101 53.01C40.1978 53.5041 40.53 54.1337 40.6646 54.8191C40.7991 55.5044 40.73 56.2148 40.4661 56.8604C40.2021 57.5061 39.7551 58.0579 39.1816 58.4461C38.6081 58.8343 37.9338 59.0415 37.244 59.0415C36.3191 59.0415 35.4321 58.6693 34.778 58.0067C34.124 57.3441 33.7565 56.4454 33.7565 55.5084Z" fill="#FF4500"/>
<path d="M3.48872 59.0416C5.41548 59.0416 6.97744 57.4591 6.97744 55.5071C6.97744 53.5551 5.41548 51.9727 3.48872 51.9727C1.56195 51.9727 0 53.5551 0 55.5071C0 57.4591 1.56195 59.0416 3.48872 59.0416Z" fill="#FF4500"/>
<path d="M138.511 33.0546C140.438 33.0546 142 31.4722 142 29.5202C142 27.5682 140.438 25.9857 138.511 25.9857C136.585 25.9857 135.023 27.5682 135.023 29.5202C135.023 31.4722 136.585 33.0546 138.511 33.0546Z" fill="#FF4500"/>
<path d="M104.756 33.0546C106.683 33.0546 108.245 31.4722 108.245 29.5202C108.245 27.5682 106.683 25.9857 104.756 25.9857C102.829 25.9857 101.267 27.5682 101.267 29.5202C101.267 31.4722 102.829 33.0546 104.756 33.0546Z" fill="#FF4500"/>
<path d="M71.0006 33.0546C72.9274 33.0546 74.4893 31.4722 74.4893 29.5202C74.4893 27.5682 72.9274 25.9857 71.0006 25.9857C69.0738 25.9857 67.5119 27.5682 67.5119 29.5202C67.5119 31.4722 69.0738 33.0546 71.0006 33.0546Z" fill="#FF4500"/>
<path d="M33.7565 29.5189C33.7573 28.8203 33.9624 28.1376 34.3461 27.557C34.7297 26.9765 35.2746 26.5242 35.912 26.2573C36.5493 25.9905 37.2504 25.921 37.9267 26.0578C38.6029 26.1945 39.224 26.5313 39.7114 27.0256C40.1987 27.5198 40.5305 28.1494 40.6648 28.8347C40.7991 29.5199 40.7298 30.2302 40.4657 30.8756C40.2017 31.521 39.7547 32.0725 39.1812 32.4606C38.6078 32.8487 37.9337 33.0558 37.2441 33.0558C36.7858 33.0558 36.332 32.9643 35.9086 32.7865C35.4852 32.6087 35.1006 32.3481 34.7767 32.0197C34.4528 31.6912 34.196 31.3013 34.021 30.8722C33.8459 30.4431 33.7561 29.9832 33.7565 29.5189Z" fill="#FF4500"/>
<path d="M3.48872 33.0546C5.41548 33.0546 6.97744 31.4722 6.97744 29.5202C6.97744 27.5682 5.41548 25.9857 3.48872 25.9857C1.56195 25.9857 0 27.5682 0 29.5202C0 31.4722 1.56195 33.0546 3.48872 33.0546Z" fill="#FF4500"/>
<path d="M138.511 7.06885C140.438 7.06885 142 5.48643 142 3.53442C142 1.58242 140.438 0 138.511 0C136.585 0 135.023 1.58242 135.023 3.53442C135.023 5.48643 136.585 7.06885 138.511 7.06885Z" fill="#FF4500"/>
<path d="M104.756 7.06885C106.683 7.06885 108.245 5.48643 108.245 3.53442C108.245 1.58242 106.683 0 104.756 0C102.829 0 101.267 1.58242 101.267 3.53442C101.267 5.48643 102.829 7.06885 104.756 7.06885Z" fill="#FF4500"/>
<path d="M71.0006 7.06885C72.9274 7.06885 74.4893 5.48643 74.4893 3.53442C74.4893 1.58242 72.9274 0 71.0006 0C69.0738 0 67.5119 1.58242 67.5119 3.53442C67.5119 5.48643 69.0738 7.06885 71.0006 7.06885Z" fill="#FF4500"/>
<path d="M33.7565 3.53567C33.7565 2.83687 33.9611 2.15375 34.3443 1.57272C34.7275 0.991692 35.2722 0.538837 35.9094 0.271418C36.5467 0.00399823 37.2479 -0.0659647 37.9244 0.0703645C38.6009 0.206694 39.2223 0.543198 39.7101 1.03732C40.1978 1.53145 40.53 2.161 40.6646 2.84637C40.7991 3.53174 40.73 4.24215 40.4661 4.88776C40.2021 5.53337 39.7551 6.08518 39.1816 6.47341C38.6081 6.86164 37.9338 7.06886 37.244 7.06886C36.786 7.06918 36.3323 6.97802 35.9091 6.80057C35.4858 6.62313 35.1012 6.36289 34.7773 6.03474C34.4534 5.70659 34.1965 5.31695 34.0214 4.88813C33.8462 4.45932 33.7562 3.99974 33.7565 3.53567Z" fill="#FF4500"/>
<path d="M3.48872 7.06885C5.41548 7.06885 6.97744 5.48643 6.97744 3.53442C6.97744 1.58242 5.41548 0 3.48872 0C1.56195 0 0 1.58242 0 3.53442C0 5.48643 1.56195 7.06885 3.48872 7.06885Z" fill="#FF4500"/>
</svg>
